#!OML:ASF H:\Male1\Project 1\Capture day 1\Session 1\Male1.ASF
:FULLY-SPECIFIED
:DEGREES
420
root 8.99005 15.5862 -1.04923 186.319 -65.8753 -185.718
lowerback 17.3728 2.37484 -1.01993
upperback 9.00451 2.0963 -2.44597
thorax -0.0575939 0.732842 -2.35237
lowerneck -6.32864 3.68603 7.92932
upperneck 1.67275 4.23846 -0.508951
head 1.81512 2.13924 -1.37191
rclavicle 1.68967e-014 6.91771e-014
rhumerus -43.9932 25.5604 -83.4923
rradius 59.7933
rwrist -28.6331
rhand -16.9888 0.732755
rfingers 7.12502
rthumb 9.2461 -29.0445
lclavicle 1.68967e-014 6.91771e-014
lhumerus -33.6525 -7.48132 72.9931
lradius 49.002
lwrist -1.61633
lhand -6.02191 8.9608
lfingers 7.12502
lthumb 19.8113 37.9711
rfemur -15.5402 0.673408 23.0484
rtibia 25.3959
rfoot -46.1514 -34.6243
rtoes 19.2812
lfemur -18.1665 10.7906 -20.133
ltibia 41.0341
lfoot -14.6715 17.4908
ltoes -8.88138
421
root 8.90138 15.586 -1.0867 186.165 -65.7674 -185.72
lowerback 17.1407 2.35184 -0.927603
upperback 8.91107 2.11122 -2.24367
thorax -0.0424032 0.747329 -2.18711
lowerneck -6.41734 3.56399 7.99107
upperneck 1.73005 4.07497 -0.75116
head 1.85197 2.05597 -1.46715
rclavicle 4.47266e-015 -2.06736e-014
rhumerus -44.6377 25.3339 -84.1076
rradius 59.1881
rwrist -28.8079
rhand -16.911 0.576369
rfingers 7.12502
rthumb 9.32124 -29.1976
lclavicle 4.47266e-015 -2.06736e-014
lhumerus -34.7523 -5.63313 73.9337
lradius 48.289
lwrist -1.68092
lhand -6.31849 8.97095
lfingers 7.12502
lthumb 19.5262 38.0104
rfemur -14.7772 1.33089 23.0511
rtibia 25.1102
rfoot -47.1511 -34.5473
rtoes 20.0821
lfemur -18.3355 10.4827 -19.783
ltibia 42.3813
lfoot -13.7638 16.6565
ltoes -9.51627
422
root 8.81423 15.5848 -1.12076 185.762 -65.664 -185.508
lowerback 17.0135 2.33216 -0.722805
upperback 8.79932 2.14185 -2.05203
thorax -0.095155 0.772985 -2.10306
lowerneck -6.4051 3.41209 8.10833
upperneck 1.6933 3.88007 -1.04627
head 1.84089 1.95392 -1.5928
rclavicle -8.24956e-015 1.33186e-014
rhumerus -45.2948 25.0029 -84.7282
rradius 58.5519
rwrist -28.9356
rhand -16.8504 0.414345
rfingers 7.12502
rthumb 9.3797 -29.357
lclavicle -8.24956e-015 1.33186e-014
lhumerus -35.852 -4.10237 74.7132
lradius 47.6896
lwrist -1.55229
lhand -6.50372 9.02051
lfingers 7.12502
lthumb 19.3481 38.078
rfemur -13.9878 1.86101 23.1523
rtibia 24.8216
rfoot -47.9027 -34.5693
rtoes 20.5721
lfemur -18.5454 10.2216 -19.3248
ltibia 43.7803
lfoot -12.7194 15.6385
ltoes -10.3911
423
root 8.72763 15.5834 -1.15088 185.127 -65.5468 -185.095
lowerback 16.9286 2.32248 -0.390557
upperback 8.71375 2.19811 -1.87977
thorax -0.134315 0.814098 -2.1167
lowerneck -6.31577 3.23511 8.24645
upperneck 1.54116 3.65851 -1.35822
head 1.77686 1.83548 -1.73017
rclavicle -2.54444e-014 -9.24349e-015
rhumerus -45.8666 24.548 -85.3104
rradius 57.8517
rwrist -29.0261
rhand -16.8563 0.281567
rfingers 7.12502
rthumb 9.37399 -29.49
lclavicle -2.54444e-014 -9.24349e-015
lhumerus -36.8451 -2.93244 75.369
lradius 47.1282
lwrist -1.27691
lhand -6.62553 9.0498
lfingers 7.12502
lthumb 19.2309 38.119
rfemur -13.1679 2.22384 23.3368
rtibia 24.5222
rfoot -48.325 -34.6755
rtoes 20.7059
lfemur -18.7496 9.96509 -18.7838
ltibia 45.1255
lfoot -11.8422 14.4166
ltoes -11.7462
424
root 8.64075 15.5823 -1.17679 184.281 -65.4022 -184.478
lowerback 16.8548 2.31024 0.0294888
upperback 8.65922 2.25943 -1.70236
thorax -0.141596 0.858728 -2.17521
lowerneck -6.16669 3.06198 8.33001
upperneck 1.29002 3.45069 -1.64345
head 1.66725 1.72183 -1.84904
rclavicle -4.87519e-014 1.19271e-015
rhumerus -46.315 24.0825 -85.8236
rradius 57.0744
rwrist -29.106
rhand -16.9416 0.193952
rfingers 7.12502
rthumb 9.29167 -29.5813
lclavicle -4.87519e-014 1.19271e-015
lhumerus -37.7232 -2.00001 75.944
lradius 46.5687
lwrist -0.975053
lhand -6.58549 9.12449
lfingers 7.12502
lthumb 19.2694 38.1898
rfemur -12.336 2.43758 23.597
rtibia 24.2135
rfoot -48.4447 -34.8287
rtoes 20.5728
lfemur -18.9242 9.67915 -18.1752
ltibia 46.3151
lfoot -11.2676 13.0754
ltoes -13.315
425
root 8.55322 15.581 -1.19832 183.396 -65.2267 -183.824
lowerback 16.7547 2.30164 0.456724
upperback 8.6412 2.32205 -1.52918
thorax -0.0947569 0.903028 -2.24095
lowerneck -5.98432 2.90828 8.35701
upperneck 0.980192 3.27357 -1.8923
head 1.53136 1.62276 -1.94449
rclavicle -4.34096e-014 1.47101e-014
rhumerus -46.6372 23.6223 -86.2483
rradius 56.2408
rwrist -29.1859
rhand -17.0646 0.113475
rfingers 7.12502
rthumb 9.17303 -29.667
lclavicle -4.34096e-014 1.47101e-014
lhumerus -38.4809 -1.2159 76.4544
lradius 46.015
lwrist -0.763496
lhand -6.57509 9.08065
lfingers 7.12502
lthumb 19.2794 38.145
rfemur -11.511 2.5305 23.8546
rtibia 23.9096
rfoot -48.3508 -34.9604
rtoes 20.3165
lfemur -19.0418 9.3218 -17.5881
ltibia 47.249
lfoot -11.1113 11.7389
ltoes -15.1682
426
root 8.46633 15.5786 -1.21529 182.551 -65.035 -183.181
lowerback 16.6194 2.29718 0.860179
upperback 8.64075 2.38379 -1.3605
thorax -0.010847 0.946039 -2.29619
lowerneck -5.80341 2.7816 8.32727
upperneck 0.668258 3.13257 -2.08322
head 1.39423 1.54274 -2.00879
rclavicle -3.72349e-014 -1.76421e-015
rhumerus -46.866 23.1677 -86.5879
rradius 55.3848
rwrist -29.2661
rhand -17.2009 0.0120575
rfingers 7.12502
rthumb 9.04146 -29.7742
lclavicle -3.72349e-014 -1.76421e-015
lhumerus -39.128 -0.512168 76.8975
lradius 45.4717
lwrist -0.718327
lhand -6.46027 9.00012
lfingers 7.12502
lthumb 19.3899 38.0534
rfemur -10.7362 2.55769 24.0918
rtibia 23.6234
rfoot -48.1883 -35.005
rtoes 20.1284
lfemur -19.1257 8.8538 -17.0486
ltibia 47.8538
lfoot -11.3356 10.5701
ltoes -17.2323
427
root 8.37947 15.5762 -1.22782 181.797 -64.8 -182.583
lowerback 16.4625 2.30682 1.20074
upperback 8.62244 2.45513 -1.19502
thorax 0.0635501 0.992525 -2.32016
lowerneck -5.64554 2.69471 8.26312
upperneck 0.428812 3.0418 -2.2265
head 1.28577 1.49049 -2.04888
rclavicle -1.99716e-014 2.59662e-014
rhumerus -47.0836 22.7345 -86.8697
rradius 54.55
rwrist -29.3259
rhand -17.3554 -0.105394
rfingers 7.12502
rthumb 8.89237 -29.898
lclavicle -1.99716e-014 2.59662e-014
lhumerus -39.7188 0.188951 77.2584
lradius 44.9446
lwrist -0.868712
lhand -6.23537 8.96791
lfingers 7.12502
lthumb 19.6061 37.9993
rfemur -10.0417 2.57245 24.2923
rtibia 23.3737
rfoot -47.9977 -34.9835
rtoes 19.9644
lfemur -19.1693 8.27141 -16.5693
ltibia 48.0639
lfoot -11.8681 9.71101
ltoes -19.1288
428
root 8.29276 15.5745 -1.2363 181.159 -64.5132 -182.04
lowerback 16.2843 2.33487 1.46081
upperback 8.57026 2.54141 -1.02991
thorax 0.110084 1.04479 -2.30108
lowerneck -5.5402 2.65119 8.1936
upperneck 0.305815 3.00318 -2.35722
head 1.2269 1.46739 -2.08161
rclavicle -4.55217e-014 3.05631e-014
rhumerus -47.3383 22.331 -87.1078
rradius 53.7785
rwrist -29.3556
rhand -17.537 -0.230852
rfingers 7.12502
rthumb 8.71715 -30.0309
lclavicle -4.55217e-014 3.05631e-014
lhumerus -40.2694 0.925186 77.5276
lradius 44.4268
lwrist -1.16087
lhand -5.97988 8.94369
lfingers 7.12502
lthumb 19.8517 37.9498
rfemur -9.45324 2.62413 24.4537
rtibia 23.1762
rfoot -47.8081 -34.9492
rtoes 19.7191
lfemur -19.1675 7.56696 -16.1476
ltibia 47.831
lfoot -12.6522 9.2463
ltoes -20.6331
429
root 8.20543 15.5748 -1.24122 180.706 -64.1682 -181.622
lowerback 16.0488 2.38672 1.61869
upperback 8.50412 2.6453 -0.877485
thorax 0.168167 1.10375 -2.23824
lowerneck -5.52861 2.65198 8.13114
upperneck 0.305839 3.01455 -2.49131
head 1.22739 1.47176 -2.11443
rclavicle 6.95746e-015 2.45499e-014
rhumerus -47.6077 21.9585 -87.2997
rradius 53.0941
rwrist -29.3693
rhand -17.7436 -0.357368
rfingers 7.12502
rthumb 8.51776 -30.1656
lclavicle 6.95746e-015 2.45499e-014
lhumerus -40.7334 1.68307 77.708
lradius 43.8874
lwrist -1.4921
lhand -5.68445 8.96863
lfingers 7.12502
lthumb 20.1357 37.9451
rfemur -8.98678 2.72451 24.5412
rtibia 23.046
rfoot -47.5612 -34.9964
rtoes 19.1481
lfemur -19.0972 6.72629 -15.8102
ltibia 47.1207
lfoot -13.5658 9.17587
ltoes -21.4952
430
root 8.11595 15.579 -1.24309 180.533 -63.7635 -181.447
lowerback 15.7431 2.46211 1.63126
upperback 8.43423 2.7598 -0.758551
thorax 0.253293 1.16491 -2.12727
lowerneck -5.57557 2.67783 8.10896
upperneck 0.370227 3.05307 -2.67654
head 1.26276 1.49017 -2.17034
rclavicle 3.36443e-014 -6.55989e-015
rhumerus -47.8771 21.6104 -87.4485
rradius 52.5121
rwrist -29.3684
rhand -17.9498 -0.467897
rfingers 7.12502
rthumb 8.31875 -30.2841
lclavicle 3.36443e-014 -6.55989e-015
lhumerus -41.0969 2.44214 77.8059
lradius 43.3051
lwrist -1.77547
lhand -5.39922 9.07063
lfingers 7.12502
lthumb 20.4098 38.018
rfemur -8.64107 2.87931 24.4907
rtibia 22.9963
rfoot -47.2066 -35.1904
rtoes 18.0838
lfemur -18.9199 5.71704 -15.61
ltibia 45.9239
lfoot -14.4722 9.44775
ltoes -21.5559
